<svg width="185" height="38" viewBox="0 0 185 38" fill="none" xmlns="http://www.w3.org/2000/svg">
<g filter="url(#filter0_dd_16_27736)">
<circle cx="19.5" cy="18" r="14" stroke="#515F79" stroke-width="4"/>
</g>
<path d="M47.017 9.54545H51.5682L56.375 21.2727H56.5795L61.3864 9.54545H65.9375V27H62.358V15.6392H62.2131L57.696 26.9148H55.2585L50.7415 15.5966H50.5966V27H47.017V9.54545ZM74.8246 27.2557C73.5007 27.2557 72.3558 26.9744 71.3899 26.4119C70.4297 25.8437 69.6882 25.054 69.1655 24.0426C68.6428 23.0256 68.3814 21.8466 68.3814 20.5057C68.3814 19.1534 68.6428 17.9716 69.1655 16.9602C69.6882 15.9432 70.4297 15.1534 71.3899 14.5909C72.3558 14.0227 73.5007 13.7386 74.8246 13.7386C76.1484 13.7386 77.2905 14.0227 78.2507 14.5909C79.2166 15.1534 79.9609 15.9432 80.4837 16.9602C81.0064 17.9716 81.2678 19.1534 81.2678 20.5057C81.2678 21.8466 81.0064 23.0256 80.4837 24.0426C79.9609 25.054 79.2166 25.8437 78.2507 26.4119C77.2905 26.9744 76.1484 27.2557 74.8246 27.2557ZM74.8416 24.4432C75.4439 24.4432 75.9467 24.2727 76.3501 23.9318C76.7536 23.5852 77.0575 23.1136 77.2621 22.517C77.4723 21.9205 77.5774 21.2415 77.5774 20.4801C77.5774 19.7188 77.4723 19.0398 77.2621 18.4432C77.0575 17.8466 76.7536 17.375 76.3501 17.0284C75.9467 16.6818 75.4439 16.5085 74.8416 16.5085C74.2337 16.5085 73.7223 16.6818 73.3075 17.0284C72.8984 17.375 72.5888 17.8466 72.3786 18.4432C72.174 19.0398 72.0717 19.7188 72.0717 20.4801C72.0717 21.2415 72.174 21.9205 72.3786 22.517C72.5888 23.1136 72.8984 23.5852 73.3075 23.9318C73.7223 24.2727 74.2337 24.4432 74.8416 24.4432ZM95.4112 13.9091L90.8345 27H86.7436L82.1669 13.9091H86.0021L88.7209 23.2756H88.8572L91.5675 13.9091H95.4112ZM97.2692 27V13.9091H100.9V27H97.2692ZM99.093 12.2216C98.5533 12.2216 98.0902 12.0426 97.7038 11.6847C97.3232 11.321 97.1328 10.8864 97.1328 10.3807C97.1328 9.88068 97.3232 9.4517 97.7038 9.09375C98.0902 8.73011 98.5533 8.54829 99.093 8.54829C99.6328 8.54829 100.093 8.73011 100.474 9.09375C100.86 9.4517 101.053 9.88068 101.053 10.3807C101.053 10.8864 100.86 11.321 100.474 11.6847C100.093 12.0426 99.6328 12.2216 99.093 12.2216ZM109.774 27.2557C108.428 27.2557 107.268 26.983 106.297 26.4375C105.331 25.8864 104.587 25.108 104.064 24.1023C103.541 23.0909 103.28 21.8949 103.28 20.5142C103.28 19.1676 103.541 17.9858 104.064 16.9688C104.587 15.9517 105.322 15.1591 106.271 14.5909C107.226 14.0227 108.345 13.7386 109.629 13.7386C110.493 13.7386 111.297 13.8778 112.041 14.1562C112.791 14.429 113.445 14.8409 114.001 15.392C114.564 15.9432 115.001 16.6364 115.314 17.4716C115.626 18.3011 115.783 19.2727 115.783 20.3864V21.3835H104.729V19.1335H112.365C112.365 18.6108 112.251 18.1477 112.024 17.7443C111.797 17.3409 111.482 17.0256 111.078 16.7983C110.68 16.5653 110.217 16.4489 109.689 16.4489C109.138 16.4489 108.649 16.5767 108.223 16.8324C107.803 17.0824 107.473 17.4205 107.234 17.8466C106.996 18.267 106.874 18.7358 106.868 19.2528V21.392C106.868 22.0398 106.987 22.5994 107.226 23.071C107.47 23.5426 107.814 23.9062 108.257 24.1619C108.7 24.4176 109.226 24.5455 109.834 24.5455C110.237 24.5455 110.607 24.4886 110.942 24.375C111.277 24.2614 111.564 24.0909 111.803 23.8636C112.041 23.6364 112.223 23.358 112.348 23.0284L115.706 23.25C115.536 24.0568 115.186 24.7614 114.658 25.3636C114.135 25.9602 113.459 26.4261 112.629 26.7614C111.805 27.0909 110.854 27.2557 109.774 27.2557ZM129.044 17.642L125.72 17.8466C125.663 17.5625 125.541 17.3068 125.354 17.0795C125.166 16.8466 124.919 16.6619 124.612 16.5256C124.311 16.3835 123.95 16.3125 123.53 16.3125C122.967 16.3125 122.493 16.4318 122.107 16.6705C121.72 16.9034 121.527 17.2159 121.527 17.608C121.527 17.9205 121.652 18.1847 121.902 18.4006C122.152 18.6165 122.581 18.7898 123.189 18.9205L125.558 19.3977C126.831 19.6591 127.78 20.0795 128.405 20.6591C129.03 21.2386 129.342 22 129.342 22.9432C129.342 23.8011 129.089 24.554 128.584 25.2017C128.084 25.8494 127.396 26.3551 126.521 26.7188C125.652 27.0767 124.649 27.2557 123.513 27.2557C121.78 27.2557 120.399 26.8949 119.371 26.1733C118.348 25.446 117.749 24.4574 117.572 23.2074L121.143 23.0199C121.251 23.5483 121.513 23.9517 121.928 24.2301C122.342 24.5028 122.874 24.6392 123.521 24.6392C124.158 24.6392 124.669 24.517 125.055 24.2727C125.447 24.0227 125.646 23.7017 125.652 23.3097C125.646 22.9801 125.507 22.7102 125.234 22.5C124.962 22.2841 124.541 22.1193 123.973 22.0057L121.706 21.554C120.428 21.2983 119.476 20.8551 118.851 20.2244C118.232 19.5937 117.922 18.7898 117.922 17.8125C117.922 16.9716 118.149 16.2472 118.604 15.6392C119.064 15.0312 119.709 14.5625 120.538 14.233C121.374 13.9034 122.351 13.7386 123.47 13.7386C125.124 13.7386 126.425 14.0881 127.374 14.7869C128.328 15.4858 128.885 16.4375 129.044 17.642ZM140.26 27H136.305L142.331 9.54545H147.087L153.104 27H149.149L144.777 13.5341H144.641L140.26 27ZM140.013 20.1392H149.354V23.0199H140.013V20.1392ZM155.136 31.9091V13.9091H158.716V16.108H158.878C159.037 15.7557 159.267 15.3977 159.568 15.0341C159.875 14.6648 160.273 14.358 160.761 14.1136C161.256 13.8636 161.869 13.7386 162.602 13.7386C163.557 13.7386 164.438 13.9886 165.244 14.4886C166.051 14.983 166.696 15.7301 167.179 16.7301C167.662 17.7244 167.903 18.9716 167.903 20.4716C167.903 21.9318 167.668 23.1648 167.196 24.1705C166.73 25.1705 166.094 25.929 165.287 26.446C164.486 26.9574 163.588 27.2131 162.594 27.2131C161.889 27.2131 161.29 27.0966 160.795 26.8636C160.307 26.6307 159.906 26.3381 159.594 25.9858C159.281 25.6278 159.043 25.267 158.878 24.9034H158.767V31.9091H155.136ZM158.69 20.4545C158.69 21.233 158.798 21.9119 159.014 22.4915C159.23 23.071 159.543 23.5227 159.952 23.8466C160.361 24.1648 160.858 24.3239 161.443 24.3239C162.034 24.3239 162.534 24.1619 162.943 23.8381C163.352 23.5085 163.662 23.054 163.872 22.4744C164.088 21.8892 164.196 21.2159 164.196 20.4545C164.196 19.6989 164.091 19.0341 163.881 18.4602C163.67 17.8864 163.361 17.4375 162.952 17.1136C162.543 16.7898 162.04 16.6278 161.443 16.6278C160.852 16.6278 160.352 16.7841 159.943 17.0966C159.54 17.4091 159.23 17.8523 159.014 18.4261C158.798 19 158.69 19.6761 158.69 20.4545ZM170.324 31.9091V13.9091H173.903V16.108H174.065C174.224 15.7557 174.455 15.3977 174.756 15.0341C175.063 14.6648 175.46 14.358 175.949 14.1136C176.443 13.8636 177.057 13.7386 177.79 13.7386C178.744 13.7386 179.625 13.9886 180.432 14.4886C181.239 14.983 181.884 15.7301 182.366 16.7301C182.849 17.7244 183.091 18.9716 183.091 20.4716C183.091 21.9318 182.855 23.1648 182.384 24.1705C181.918 25.1705 181.281 25.929 180.474 26.446C179.673 26.9574 178.776 27.2131 177.781 27.2131C177.077 27.2131 176.477 27.0966 175.983 26.8636C175.494 26.6307 175.094 26.3381 174.781 25.9858C174.469 25.6278 174.23 25.267 174.065 24.9034H173.955V31.9091H170.324ZM173.878 20.4545C173.878 21.233 173.986 21.9119 174.202 22.4915C174.418 23.071 174.73 23.5227 175.139 23.8466C175.548 24.1648 176.045 24.3239 176.631 24.3239C177.222 24.3239 177.722 24.1619 178.131 23.8381C178.54 23.5085 178.849 23.054 179.06 22.4744C179.276 21.8892 179.384 21.2159 179.384 20.4545C179.384 19.6989 179.278 19.0341 179.068 18.4602C178.858 17.8864 178.548 17.4375 178.139 17.1136C177.73 16.7898 177.227 16.6278 176.631 16.6278C176.04 16.6278 175.54 16.7841 175.131 17.0966C174.727 17.4091 174.418 17.8523 174.202 18.4261C173.986 19 173.878 19.6761 173.878 20.4545Z" fill="#061A40"/>
<defs>
<filter id="filter0_dd_16_27736" x="0.5" y="0" width="38" height="38" filterUnits="userSpaceOnUse" color-interpolation-filters="sRGB">
<feFlood flood-opacity="0" result="BackgroundImageFix"/>
<feColorMatrix in="SourceAlpha" type="matrix" values="0 0 0 0 0 0 0 0 0 0 0 0 0 0 0 0 0 0 127 0" result="hardAlpha"/>
<feOffset dy="1"/>
<feGaussianBlur stdDeviation="1"/>
<feColorMatrix type="matrix" values="0 0 0 0 0.0627451 0 0 0 0 0.0941176 0 0 0 0 0.156863 0 0 0 0.06 0"/>
<feBlend mode="normal" in2="BackgroundImageFix" result="effect1_dropShadow_16_27736"/>
<feColorMatrix in="SourceAlpha" type="matrix" values="0 0 0 0 0 0 0 0 0 0 0 0 0 0 0 0 0 0 127 0" result="hardAlpha"/>
<feOffset dy="1"/>
<feGaussianBlur stdDeviation="1.5"/>
<feColorMatrix type="matrix" values="0 0 0 0 0.0627451 0 0 0 0 0.0941176 0 0 0 0 0.156863 0 0 0 0.1 0"/>
<feBlend mode="normal" in2="effect1_dropShadow_16_27736" result="effect2_dropShadow_16_27736"/>
<feBlend mode="normal" in="SourceGraphic" in2="effect2_dropShadow_16_27736" result="shape"/>
</filter>
</defs>
</svg>
